<svg id="SvgjsSvg1964" width="1530.1640625" height="1147.265625" xmlns="http://www.w3.org/2000/svg" version="1.1" xmlns:xlink="http://www.w3.org/1999/xlink" xmlns:svgjs="http://svgjs.com/svgjs"><defs id="SvgjsDefs1965"><marker id="SvgjsMarker1982" markerWidth="14" markerHeight="10" refX="10" refY="5" viewBox="0 0 14 10" orient="auto" markerUnits="userSpaceOnUse" stroke-dasharray="0,0"><path id="SvgjsPath1983" d="M0,0 L14,5 L0,10 L0,0" fill="#323232" stroke="#323232" stroke-width="1"></path></marker><marker id="SvgjsMarker2000" markerWidth="14" markerHeight="10" refX="10" refY="5" viewBox="0 0 14 10" orient="auto" markerUnits="userSpaceOnUse" stroke-dasharray="0,0"><path id="SvgjsPath2001" d="M0,0 L14,5 L0,10 L0,0" fill="#323232" stroke="#323232" stroke-width="1"></path></marker><marker id="SvgjsMarker2004" markerWidth="14" markerHeight="10" refX="10" refY="5" viewBox="0 0 14 10" orient="auto" markerUnits="userSpaceOnUse" stroke-dasharray="0,0"><path id="SvgjsPath2005" d="M0,0 L14,5 L0,10 L0,0" fill="#323232" stroke="#323232" stroke-width="1"></path></marker><marker id="SvgjsMarker2020" markerWidth="14" markerHeight="10" refX="10" refY="5" viewBox="0 0 14 10" orient="auto" markerUnits="userSpaceOnUse" stroke-dasharray="0,0"><path id="SvgjsPath2021" d="M0,0 L14,5 L0,10 L0,0" fill="#323232" stroke="#323232" stroke-width="1"></path></marker><marker id="SvgjsMarker2032" markerWidth="14" markerHeight="10" refX="10" refY="5" viewBox="0 0 14 10" orient="auto" markerUnits="userSpaceOnUse" stroke-dasharray="0,0"><path id="SvgjsPath2033" d="M0,0 L14,5 L0,10 L0,0" fill="#323232" stroke="#323232" stroke-width="1"></path></marker><marker id="SvgjsMarker2056" markerWidth="14" markerHeight="10" refX="10" refY="5" viewBox="0 0 14 10" orient="auto" markerUnits="userSpaceOnUse" stroke-dasharray="0,0"><path id="SvgjsPath2057" d="M0,0 L14,5 L0,10 L0,0" fill="#323232" stroke="#323232" stroke-width="1"></path></marker><marker id="SvgjsMarker2066" markerWidth="14" markerHeight="10" refX="10" refY="5" viewBox="0 0 14 10" orient="auto" markerUnits="userSpaceOnUse" stroke-dasharray="0,0"><path id="SvgjsPath2067" d="M0,0 L14,5 L0,10 L0,0" fill="#323232" stroke="#323232" stroke-width="1"></path></marker><marker id="SvgjsMarker2076" markerWidth="14" markerHeight="10" refX="10" refY="5" viewBox="0 0 14 10" orient="auto" markerUnits="userSpaceOnUse" stroke-dasharray="0,0"><path id="SvgjsPath2077" d="M0,0 L14,5 L0,10 L0,0" fill="#323232" stroke="#323232" stroke-width="1"></path></marker><marker id="SvgjsMarker2090" markerWidth="14" markerHeight="10" refX="10" refY="5" viewBox="0 0 14 10" orient="auto" markerUnits="userSpaceOnUse" stroke-dasharray="0,0"><path id="SvgjsPath2091" d="M0,0 L14,5 L0,10 L0,0" fill="#323232" stroke="#323232" stroke-width="1"></path></marker><marker id="SvgjsMarker2094" markerWidth="14" markerHeight="10" refX="10" refY="5" viewBox="0 0 14 10" orient="auto" markerUnits="userSpaceOnUse" stroke-dasharray="0,0"><path id="SvgjsPath2095" d="M0,0 L14,5 L0,10 L0,0" fill="#323232" stroke="#323232" stroke-width="1"></path></marker><marker id="SvgjsMarker2098" markerWidth="14" markerHeight="10" refX="10" refY="5" viewBox="0 0 14 10" orient="auto" markerUnits="userSpaceOnUse" stroke-dasharray="0,0"><path id="SvgjsPath2099" d="M0,0 L14,5 L0,10 L0,0" fill="#323232" stroke="#323232" stroke-width="1"></path></marker><marker id="SvgjsMarker2116" markerWidth="14" markerHeight="10" refX="10" refY="5" viewBox="0 0 14 10" orient="auto" markerUnits="userSpaceOnUse" stroke-dasharray="0,0"><path id="SvgjsPath2117" d="M0,0 L14,5 L0,10 L0,0" fill="#323232" stroke="#323232" stroke-width="1"></path></marker><marker id="SvgjsMarker2160" markerWidth="14" markerHeight="10" refX="10" refY="5" viewBox="0 0 14 10" orient="auto" markerUnits="userSpaceOnUse" stroke-dasharray="0,0"><path id="SvgjsPath2161" d="M0,0 L14,5 L0,10 L0,0" fill="#323232" stroke="#323232" stroke-width="1"></path></marker><marker id="SvgjsMarker2206" markerWidth="14" markerHeight="10" refX="10" refY="5" viewBox="0 0 14 10" orient="auto" markerUnits="userSpaceOnUse" stroke-dasharray="0,0"><path id="SvgjsPath2207" d="M0,0 L14,5 L0,10 L0,0" fill="#323232" stroke="#323232" stroke-width="1"></path></marker><marker id="SvgjsMarker2223" markerWidth="14" markerHeight="10" refX="10" refY="5" viewBox="0 0 14 10" orient="auto" markerUnits="userSpaceOnUse" stroke-dasharray="0,0"><path id="SvgjsPath2224" d="M0,0 L14,5 L0,10 L0,0" fill="#323232" stroke="#323232" stroke-width="1"></path></marker><marker id="SvgjsMarker2227" markerWidth="14" markerHeight="10" refX="10" refY="5" viewBox="0 0 14 10" orient="auto" markerUnits="userSpaceOnUse" stroke-dasharray="0,0"><path id="SvgjsPath2228" d="M0,0 L14,5 L0,10 L0,0" fill="#323232" stroke="#323232" stroke-width="1"></path></marker><marker id="SvgjsMarker2231" markerWidth="14" markerHeight="10" refX="10" refY="5" viewBox="0 0 14 10" orient="auto" markerUnits="userSpaceOnUse" stroke-dasharray="0,0"><path id="SvgjsPath2232" d="M0,0 L14,5 L0,10 L0,0" fill="#323232" stroke="#323232" stroke-width="1"></path></marker><marker id="SvgjsMarker2235" markerWidth="14" markerHeight="10" refX="10" refY="5" viewBox="0 0 14 10" orient="auto" markerUnits="userSpaceOnUse" stroke-dasharray="0,0"><path id="SvgjsPath2236" d="M0,0 L14,5 L0,10 L0,0" fill="#323232" stroke="#323232" stroke-width="1"></path></marker><marker id="SvgjsMarker2239" markerWidth="14" markerHeight="10" refX="10" refY="5" viewBox="0 0 14 10" orient="auto" markerUnits="userSpaceOnUse" stroke-dasharray="0,0"><path id="SvgjsPath2240" d="M0,0 L14,5 L0,10 L0,0" fill="#323232" stroke="#323232" stroke-width="1"></path></marker></defs><g id="SvgjsG1966" transform="translate(648.6377467105247,25.00328947368419)"><path id="SvgjsPath1967" d="M 25.385964912280702 0L 108.40350877192982 0C 142.2514619883041 0 142.2514619883041 76.15789473684211 108.40350877192982 76.15789473684211L 25.385964912280702 76.15789473684211C -8.461988304093568 76.15789473684211 -8.461988304093568 0 25.385964912280702 0Z" stroke="none" fill-opacity="1" fill="#fda98d"></path><g id="SvgjsG1968"><text id="SvgjsText1969" font-family="微软雅黑" text-anchor="middle" font-size="13px" width="114px" fill="#ffffff" font-weight="400" align="middle" lineHeight="125%" anchor="middle" family="微软雅黑" size="13px" weight="400" font-style="" opacity="1" y="27.453947368421055" transform="rotate(0)"><tspan id="SvgjsTspan1970" dy="16" x="67"><tspan id="SvgjsTspan1971" style="text-decoration:;">打开比特浏览器</tspan></tspan></text></g></g><g id="SvgjsG1972" transform="translate(589.0456414473671,140.79276315789477)"><path id="SvgjsPath1973" d="M 0 0L 252.97368421052573 0L 252.97368421052573 75.48245614035085L 0 75.48245614035085L 0 0ZM 20 0L 20 75.48245614035085M 232.97368421052573 0L 232.97368421052573 75.48245614035085" stroke="rgba(50,50,50,1)" stroke-width="2" fill-opacity="1" fill="#2196f3"></path><g id="SvgjsG1974"><text id="SvgjsText1975" font-family="微软雅黑" text-anchor="middle" font-size="13px" width="213px" fill="#ffffff" font-weight="400" align="middle" lineHeight="125%" anchor="middle" family="微软雅黑" size="13px" weight="400" font-style="" opacity="1" y="18.616228070175424" transform="rotate(0)"><tspan id="SvgjsTspan1976" dy="16" x="126.5"><tspan id="SvgjsTspan1977" style="text-decoration:;">获取API调用端口，默认端口54345</tspan></tspan><tspan id="SvgjsTspan1978" dy="16" x="126.5"><tspan id="SvgjsTspan1979" style="text-decoration:;">http://127.0.0.1:54345</tspan></tspan></text></g></g><g id="SvgjsG1980"><path id="SvgjsPath1981" d="M715.5324835526299 101.1611842105263L715.5324835526299 120.97697368421055L715.5324835526287 120.97697368421055L715.5324835526287 137.19276315789477" stroke="#323232" stroke-width="2" fill="none" marker-end="url(#SvgjsMarker1982)"></path></g><g id="SvgjsG1984" transform="translate(333.4272203947373,334.0559210526304)"><path id="SvgjsPath1985" d="M 0 4Q 0 0 4 0L 209.34210526315846 0Q 213.34210526315846 0 213.34210526315846 4L 213.34210526315846 61.71929824561448Q 213.34210526315846 65.71929824561448 209.34210526315846 65.71929824561448L 4 65.71929824561448Q 0 65.71929824561448 0 61.71929824561448Z" stroke="rgba(50,50,50,1)" stroke-width="2" fill-opacity="1" fill="#2196f3"></path><g id="SvgjsG1986"><text id="SvgjsText1987" font-family="微软雅黑" text-anchor="middle" font-size="14px" width="194px" fill="#ffffff" font-weight="400" align="middle" lineHeight="125%" anchor="middle" family="微软雅黑" size="14px" weight="400" font-style="" opacity="1" y="21.10964912280724" transform="rotate(0)"><tspan id="SvgjsTspan1988" dy="17" x="107"><tspan id="SvgjsTspan1989" style="text-decoration:;">创建/更新浏览器窗口</tspan></tspan></text></g></g><g id="SvgjsG1990" transform="translate(892.7693256578942,334.0559210526308)"><path id="SvgjsPath1991" d="M 0 4Q 0 0 4 0L 162.65789473684163 0Q 166.65789473684163 0 166.65789473684163 4L 166.65789473684163 61.719298245613686Q 166.65789473684163 65.71929824561369 162.65789473684163 65.71929824561369L 4 65.71929824561369Q 0 65.71929824561369 0 61.719298245613686Z" stroke="rgba(50,50,50,1)" stroke-width="2" fill-opacity="1" fill="#f57c00"></path><g id="SvgjsG1992"><text id="SvgjsText1993" font-family="微软雅黑" text-anchor="middle" font-size="14px" width="147px" fill="#ffffff" font-weight="400" align="middle" lineHeight="125%" anchor="middle" family="微软雅黑" size="14px" weight="400" font-style="" opacity="1" y="12.609649122806843" transform="rotate(0)"><tspan id="SvgjsTspan1994" dy="17" x="83.5"><tspan id="SvgjsTspan1995" style="text-decoration:;">打开浏览器窗口</tspan></tspan><tspan id="SvgjsTspan1996" dy="17" x="83.5"><tspan id="SvgjsTspan1997" style="text-decoration:;">/browser/open</tspan></tspan></text></g></g><g id="SvgjsG1998"><path id="SvgjsPath1999" d="M715.5324835526299 217.2752192982456L715.5324835526299 275.165570175438L440.0982730263156 275.165570175438L440.0982730263156 330.4559210526304" stroke="#323232" stroke-width="2" fill="none" marker-end="url(#SvgjsMarker2000)"></path></g><g id="SvgjsG2002"><path id="SvgjsPath2003" d="M715.5324835526299 217.2752192982456L715.5324835526299 275.16557017543823L976.0982730263127 275.16557017543823L976.0982730263127 330.4559210526308" stroke="#323232" stroke-width="2" fill="none" marker-end="url(#SvgjsMarker2004)"></path></g><g id="SvgjsG2006" transform="translate(25.006167763157762,334.45065789473557)"><path id="SvgjsPath2007" d="M 0 0L 235.5789473684205 0L 251.5789473684205 16L 251.5789473684205 64.92982456140419L 0 64.92982456140419L 0 0Z" stroke="none" fill-opacity="1" fill="#ffffaa"></path><path id="SvgjsPath2008" d="M 235.5789473684205 0L 235.5789473684205 16L 251.5789473684205 16Z" stroke="none" fill-opacity="1" fill="#cdcdcd"></path><path id="SvgjsPath2009" d="M 0 0L 235.5789473684205 0L 251.5789473684205 16L 251.5789473684205 64.92982456140419L 0 64.92982456140419L 0 0Z" stroke="none" fill="none"></path><g id="SvgjsG2010"><text id="SvgjsText2011" font-family="微软雅黑" text-anchor="start" font-size="13px" width="232px" fill="#323232" font-weight="400" align="middle" lineHeight="125%" anchor="start" family="微软雅黑" size="13px" weight="400" font-style="" opacity="1" y="5.3399122807020944" transform="rotate(0)"><tspan id="SvgjsTspan2012" dy="16" x="10"><tspan id="SvgjsTspan2013" style="text-decoration:;">创建/更新：/browser/update</tspan></tspan><tspan id="SvgjsTspan2014" dy="16" x="10"><tspan id="SvgjsTspan2015" style="text-decoration:;">按字段更新：/browser/update/partial</tspan></tspan><tspan id="SvgjsTspan2016" dy="16" x="10"><tspan id="SvgjsTspan2017" style="text-decoration:;">更新代理：/browser/proxy/update</tspan></tspan></text></g></g><g id="SvgjsG2018"><path id="SvgjsPath2019" d="M332.4272203947373 366.91557017543767L305.0061677631584 366.91557017543767L305.0061677631584 366.91557017543767L279.1851151315795 366.91557017543767" stroke="#323232" stroke-width="2" fill="none" marker-end="url(#SvgjsMarker2020)"></path></g><g id="SvgjsG2022" transform="translate(333.42722039473733,453.1611842105264)"><path id="SvgjsPath2023" d="M 0 4Q 0 0 4 0L 209.34210526315837 0Q 213.34210526315837 0 213.34210526315837 4L 213.34210526315837 61.526315789473756Q 213.34210526315837 65.52631578947376 209.34210526315837 65.52631578947376L 4 65.52631578947376Q 0 65.52631578947376 0 61.526315789473756Z" stroke="rgba(50,50,50,1)" stroke-width="2" fill-opacity="1" fill="#2196f3"></path><g id="SvgjsG2024"><text id="SvgjsText2025" font-family="微软雅黑" text-anchor="middle" font-size="13px" width="194px" fill="#ffffff" font-weight="400" align="middle" lineHeight="125%" anchor="middle" family="微软雅黑" size="13px" weight="400" font-style="" opacity="1" y="13.638157894736878" transform="rotate(0)"><tspan id="SvgjsTspan2026" dy="16" x="107"><tspan id="SvgjsTspan2027" style="text-decoration:;">删除窗口</tspan></tspan><tspan id="SvgjsTspan2028" dy="16" x="107"><tspan id="SvgjsTspan2029" style="text-decoration:;">/browser/delete</tspan></tspan></text></g></g><g id="SvgjsG2030"><path id="SvgjsPath2031" d="M440.0982730263154 400.7752192982449L440.0982730263154 426.46820175438563L440.09827302631567 426.46820175438563L440.09827302631567 449.5611842105264" stroke="#323232" stroke-width="2" fill="none" marker-end="url(#SvgjsMarker2032)"></path></g><g id="SvgjsG2034" transform="translate(892.7693256578942,812.8103070175443)"><path id="SvgjsPath2035" d="M 0 4Q 0 0 4 0L 162.65789473684163 0Q 166.65789473684163 0 166.65789473684163 4L 166.65789473684163 65.99999999999977Q 166.65789473684163 69.99999999999977 162.65789473684163 69.99999999999977L 4 69.99999999999977Q 0 69.99999999999977 0 65.99999999999977Z" stroke="rgba(50,50,50,1)" stroke-width="2" fill-opacity="1" fill="#f57c00"></path><g id="SvgjsG2036"><text id="SvgjsText2037" font-family="微软雅黑" text-anchor="middle" font-size="13px" width="147px" fill="#ffffff" font-weight="400" align="middle" lineHeight="125%" anchor="middle" family="微软雅黑" size="13px" weight="400" font-style="" opacity="1" y="15.874999999999886" transform="rotate(0)"><tspan id="SvgjsTspan2038" dy="16" x="83.5"><tspan id="SvgjsTspan2039" style="text-decoration:;">关闭窗口</tspan></tspan><tspan id="SvgjsTspan2040" dy="16" x="83.5"><tspan id="SvgjsTspan2041" style="text-decoration:;">/browser/close</tspan></tspan></text></g></g><g id="SvgjsG2042" transform="translate(1140.4798519736828,813.6392543859656)"><path id="SvgjsPath2043" d="M 0 0L 201.3684210526319 0L 217.3684210526319 16L 217.3684210526319 68.34210526315701L 0 68.34210526315701L 0 0Z" stroke="none" fill-opacity="1" fill="#ffffaa"></path><path id="SvgjsPath2044" d="M 201.3684210526319 0L 201.3684210526319 16L 217.3684210526319 16Z" stroke="none" fill-opacity="1" fill="#cdcdcd"></path><path id="SvgjsPath2045" d="M 0 0L 201.3684210526319 0L 217.3684210526319 16L 217.3684210526319 68.34210526315701L 0 68.34210526315701L 0 0Z" stroke="none" fill="none"></path><g id="SvgjsG2046"><text id="SvgjsText2047" font-family="微软雅黑" text-anchor="start" font-size="13px" width="198px" fill="#323232" font-weight="400" align="middle" lineHeight="125%" anchor="start" family="微软雅黑" size="13px" weight="400" font-style="" opacity="1" y="7.046052631578505" transform="rotate(0)"><tspan id="SvgjsTspan2048" dy="16" x="10"><tspan id="SvgjsTspan2049" style="text-decoration:;">自动化脚本运行完毕后，可调用接</tspan></tspan><tspan id="SvgjsTspan2050" dy="16" x="10"><tspan id="SvgjsTspan2051" style="text-decoration:;">口关闭窗口，也可通过自己的自动</tspan></tspan><tspan id="SvgjsTspan2052" dy="16" x="10"><tspan id="SvgjsTspan2053" style="text-decoration:;">化框架关闭窗口</tspan></tspan></text></g></g><g id="SvgjsG2054"><path id="SvgjsPath2055" d="M1060.4272203947357 847.8103070175441L1099.953536184209 847.8103070175441L1099.953536184209 847.8103070175441L1137.879851973683 847.8103070175441" stroke="#323232" stroke-width="2" fill="none" marker-end="url(#SvgjsMarker2056)"></path></g><g id="SvgjsG2058" transform="translate(648.6377467105247,1046.266447368421)"><path id="SvgjsPath2059" d="M 25.385964912280702 0L 108.40350877192982 0C 142.2514619883041 0 142.2514619883041 76.15789473684211 108.40350877192982 76.15789473684211L 25.385964912280702 76.15789473684211C -8.461988304093568 76.15789473684211 -8.461988304093568 0 25.385964912280702 0Z" stroke="none" fill-opacity="1" fill="#fda98d"></path><g id="SvgjsG2060"><text id="SvgjsText2061" font-family="微软雅黑" text-anchor="middle" font-size="13px" width="114px" fill="#ffffff" font-weight="400" align="middle" lineHeight="125%" anchor="middle" family="微软雅黑" size="13px" weight="400" font-style="" opacity="1" y="27.453947368421055" transform="rotate(0)"><tspan id="SvgjsTspan2062" dy="16" x="67"><tspan id="SvgjsTspan2063" style="text-decoration:;">关闭比特浏览器</tspan></tspan></text></g></g><g id="SvgjsG2064"><path id="SvgjsPath2065" d="M976.0982730263145 883.8103070175441L976.0982730263145 964.5383771929826L715.5324835526299 964.5383771929826L715.5324835526299 1043.6664473684211" stroke="#323232" stroke-width="2" fill="none" marker-end="url(#SvgjsMarker2066)"></path></g><g id="SvgjsG2068" transform="translate(608.8614309210509,334.0559210526304)"><path id="SvgjsPath2069" d="M 0 4Q 0 0 4 0L 209.34210526315846 0Q 213.34210526315846 0 213.34210526315846 4L 213.34210526315846 61.71929824561448Q 213.34210526315846 65.71929824561448 209.34210526315846 65.71929824561448L 4 65.71929824561448Q 0 65.71929824561448 0 61.71929824561448Z" stroke="rgba(50,50,50,1)" stroke-width="2" fill-opacity="1" fill="#2196f3"></path><g id="SvgjsG2070"><text id="SvgjsText2071" font-family="微软雅黑" text-anchor="middle" font-size="14px" width="194px" fill="#ffffff" font-weight="400" align="middle" lineHeight="125%" anchor="middle" family="微软雅黑" size="14px" weight="400" font-style="" opacity="1" y="21.10964912280724" transform="rotate(0)"><tspan id="SvgjsTspan2072" dy="17" x="107"><tspan id="SvgjsTspan2073" style="text-decoration:;">分组管理</tspan></tspan></text></g></g><g id="SvgjsG2074"><path id="SvgjsPath2075" d="M715.53248355263 217.2752192982456L715.53248355263 275.165570175438L715.5324835526301 275.165570175438L715.5324835526301 330.4559210526304" stroke="#323232" stroke-width="2" fill="none" marker-end="url(#SvgjsMarker2076)"></path></g><g id="SvgjsG2078" transform="translate(608.8614309210509,453.06469298245605)"><path id="SvgjsPath2079" d="M 0 4Q 0 0 4 0L 209.34210526315846 0Q 213.34210526315846 0 213.34210526315846 4L 213.34210526315846 61.71929824561448Q 213.34210526315846 65.71929824561448 209.34210526315846 65.71929824561448L 4 65.71929824561448Q 0 65.71929824561448 0 61.71929824561448Z" stroke="rgba(50,50,50,1)" stroke-width="2" fill-opacity="1" fill="#2196f3"></path><g id="SvgjsG2080"><text id="SvgjsText2081" font-family="微软雅黑" text-anchor="middle" font-size="14px" width="194px" fill="#ffffff" font-weight="400" align="middle" lineHeight="125%" anchor="middle" family="微软雅黑" size="14px" weight="400" font-style="" opacity="1" y="3.609649122807241" transform="rotate(0)"><tspan id="SvgjsTspan2082" dy="17" x="107"><tspan id="SvgjsTspan2083" style="text-decoration:;">创建分组：/group/add</tspan></tspan><tspan id="SvgjsTspan2084" dy="17" x="107"><tspan id="SvgjsTspan2085" style="text-decoration:;">修改分组：/group/edit</tspan></tspan><tspan id="SvgjsTspan2086" dy="17" x="107"><tspan id="SvgjsTspan2087" style="text-decoration:;">删除分组：/group/delete</tspan></tspan></text></g></g><g id="SvgjsG2088"><path id="SvgjsPath2089" d="M715.5324835526301 400.7752192982449L715.5324835526301 426.41995614035045L715.5324835526304 426.41995614035045L715.5324835526304 449.46469298245603" stroke="#323232" stroke-width="2" fill="none" marker-end="url(#SvgjsMarker2090)"></path></g><g id="SvgjsG2092"><path id="SvgjsPath2093" d="M715.5324835526301 519.7839912280706L715.5324835526301 782.5252192982458L715.53248355263 782.5252192982458L715.53248355263 1043.6664473684211" stroke="#323232" stroke-width="2" fill="none" marker-end="url(#SvgjsMarker2094)"></path></g><g id="SvgjsG2096"><path id="SvgjsPath2097" d="M440.0982730263165 519.6875000000002L440.0982730263165 782.4769736842106L715.53248355263 782.4769736842106L715.53248355263 1043.6664473684211" stroke="#323232" stroke-width="2" fill="none" marker-end="url(#SvgjsMarker2098)"></path></g><g id="SvgjsG2100" transform="translate(25.006167763157762,25.00328947368419)"><path id="SvgjsPath2101" d="M 0 0L 299.36842105263156 0L 299.36842105263156 56.000000000000014L 0 56.000000000000014Z" stroke="rgba(50,50,50,1)" stroke-width="2" fill-opacity="1" fill="#ffb74d"></path><g id="SvgjsG2102"><text id="SvgjsText2103" font-family="微软雅黑" text-anchor="middle" font-size="18px" width="280px" fill="#ffffff" font-weight="700" align="middle" lineHeight="125%" anchor="middle" family="微软雅黑" size="18px" weight="700" font-style="" opacity="1" y="12.250000000000007" transform="rotate(0)"><tspan id="SvgjsTspan2104" dy="22" x="150"><tspan id="SvgjsTspan2105" style="text-decoration:;">Local Api 使用线路图</tspan></tspan></text></g></g><g id="SvgjsG2106" transform="translate(901.1640625,158.327850877193)"><path id="SvgjsPath2107" d="M 0 4Q 0 0 4 0L 208.26315789473597 0Q 212.26315789473597 0 212.26315789473597 4L 212.26315789473597 36.41228070175441Q 212.26315789473597 40.41228070175441 208.26315789473597 40.41228070175441L 4 40.41228070175441Q 0 40.41228070175441 0 36.41228070175441Z" stroke="rgba(50,50,50,1)" stroke-width="2" fill-opacity="1" fill="#2196f3"></path><g id="SvgjsG2108"><text id="SvgjsText2109" font-family="微软雅黑" text-anchor="middle" font-size="13px" width="193px" fill="#ffffff" font-weight="400" align="middle" lineHeight="125%" anchor="middle" family="微软雅黑" size="13px" weight="400" font-style="" opacity="1" y="1.081140350877206" transform="rotate(0)"><tspan id="SvgjsTspan2110" dy="16" x="106.5"><tspan id="SvgjsTspan2111" style="text-decoration:;">打开比特浏览器系统设置查看</tspan></tspan><tspan id="SvgjsTspan2112" dy="16" x="106.5"><tspan id="SvgjsTspan2113" style="text-decoration:;">基础设置&gt;&gt;本地接口</tspan></tspan></text></g></g><g id="SvgjsG2114"><path id="SvgjsPath2115" d="M843.0193256578928 178.5339912280702L871.5916940789464 178.5339912280702L871.5916940789464 178.5339912280702L897.5640625 178.5339912280702" stroke="#323232" stroke-width="2" fill="none" marker-end="url(#SvgjsMarker2116)"></path></g><g id="SvgjsG2118" transform="translate(25.006167763157762,98.05592105263162)"><path id="SvgjsPath2119" d="M 0 0L 283.36842105263156 0L 299.36842105263156 16L 299.36842105263156 118.21929824561397L 0 118.21929824561397L 0 0Z" stroke="none" fill-opacity="1" fill="#ffffaa"></path><path id="SvgjsPath2120" d="M 283.36842105263156 0L 283.36842105263156 16L 299.36842105263156 16Z" stroke="none" fill-opacity="1" fill="#cdcdcd"></path><path id="SvgjsPath2121" d="M 0 0L 283.36842105263156 0L 299.36842105263156 16L 299.36842105263156 118.21929824561397L 0 118.21929824561397L 0 0Z" stroke="none" fill="none"></path><g id="SvgjsG2122"><text id="SvgjsText2123" font-family="微软雅黑" text-anchor="start" font-size="13px" width="280px" fill="#323232" font-weight="400" align="middle" lineHeight="125%" anchor="start" family="微软雅黑" size="13px" weight="400" font-style="" opacity="1" y="15.984649122806985" transform="rotate(0)"><tspan id="SvgjsTspan2124" dy="16" x="10"><tspan id="SvgjsTspan2125" style="text-decoration:;">注意：本指南提供API调用指南，更多接口请参考</tspan></tspan><tspan id="SvgjsTspan2126" dy="16" x="10"><tspan id="SvgjsTspan2127" style="text-decoration:;">API使用文档</tspan></tspan><tspan id="SvgjsTspan2128" dy="16" x="10"><tspan id="SvgjsTspan2129" style="text-decoration:;"> </tspan></tspan><tspan id="SvgjsTspan2130" dy="16" x="10"><tspan id="SvgjsTspan2131" style="text-decoration:;">调试接口，建议使用postman导入API文档中的</tspan></tspan><tspan id="SvgjsTspan2132" dy="16" x="10"><tspan id="SvgjsTspan2133" style="text-decoration:;">json文件，接口调试成功后，再集成到脚本内。</tspan></tspan></text></g></g><g id="SvgjsG2134" transform="translate(833.7693256578951,499.86196393762054)"><path id="SvgjsPath2135" d="M 0 4Q 0 0 4 0L 125 0Q 129 0 129 4L 129 54.614035087718776Q 129 58.614035087718776 125 58.614035087718776L 4 58.614035087718776Q 0 58.614035087718776 0 54.614035087718776Z" stroke="rgba(50,50,50,1)" stroke-width="2" fill-opacity="1" fill="#f57c00"></path><g id="SvgjsG2136"><text id="SvgjsText2137" font-family="微软雅黑" text-anchor="middle" font-size="14px" width="109px" fill="#ffffff" font-weight="400" align="middle" lineHeight="125%" anchor="middle" family="微软雅黑" size="14px" weight="400" font-style="" opacity="1" y="9.057017543859388" transform="rotate(0)"><tspan id="SvgjsTspan2138" dy="17" x="64.5"><tspan id="SvgjsTspan2139" style="text-decoration:;">puppeteer通过</tspan></tspan><tspan id="SvgjsTspan2140" dy="17" x="64.5"><tspan id="SvgjsTspan2141" style="text-decoration:;">ws连接浏览器</tspan></tspan></text></g></g><g id="SvgjsG2142" transform="translate(1140.4798519736828,312.5997807017529)"><path id="SvgjsPath2143" d="M 0 0L 192.4210526315801 0L 208.4210526315801 16L 208.4210526315801 108.63157894736958L 0 108.63157894736958L 0 0Z" stroke="none" fill-opacity="1" fill="#ffffaa"></path><path id="SvgjsPath2144" d="M 192.4210526315801 0L 192.4210526315801 16L 208.4210526315801 16Z" stroke="none" fill-opacity="1" fill="#cdcdcd"></path><path id="SvgjsPath2145" d="M 0 0L 192.4210526315801 0L 208.4210526315801 16L 208.4210526315801 108.63157894736958L 0 108.63157894736958L 0 0Z" stroke="none" fill="none"></path><g id="SvgjsG2146"><text id="SvgjsText2147" font-family="微软雅黑" text-anchor="start" font-size="13px" width="189px" fill="#323232" font-weight="400" align="middle" lineHeight="125%" anchor="start" family="微软雅黑" size="13px" weight="400" font-style="" opacity="1" y="11.190789473684788" transform="rotate(0)"><tspan id="SvgjsTspan2148" dy="16" x="10"><tspan id="SvgjsTspan2149" style="text-decoration:;">Local Api本身不提供浏览器控制</tspan></tspan><tspan id="SvgjsTspan2150" dy="16" x="10"><tspan id="SvgjsTspan2151" style="text-decoration:;">接口</tspan></tspan><tspan id="SvgjsTspan2152" dy="16" x="10"><tspan id="SvgjsTspan2153" style="text-decoration:;">由接口返回puppeteer连接用到</tspan></tspan><tspan id="SvgjsTspan2154" dy="16" x="10"><tspan id="SvgjsTspan2155" style="text-decoration:;">的ws地址，以及selenium用到的</tspan></tspan><tspan id="SvgjsTspan2156" dy="16" x="10"><tspan id="SvgjsTspan2157" style="text-decoration:;">http连接地址</tspan></tspan></text></g></g><g id="SvgjsG2158"><path id="SvgjsPath2159" d="M1060.4272203947357 366.91557017543767L1099.9535361842093 366.91557017543767L1099.9535361842093 366.91557017543767L1137.879851973683 366.91557017543767" stroke="#323232" stroke-width="2" fill="none" marker-end="url(#SvgjsMarker2160)"></path></g><g id="SvgjsG2162" transform="translate(983.7693256578949,499.86196393762054)"><path id="SvgjsPath2163" d="M 0 4Q 0 0 4 0L 131.71052631578846 0Q 135.71052631578846 0 135.71052631578846 4L 135.71052631578846 54.614035087718776Q 135.71052631578846 58.614035087718776 131.71052631578846 58.614035087718776L 4 58.614035087718776Q 0 58.614035087718776 0 54.614035087718776Z" stroke="rgba(50,50,50,1)" stroke-width="2" fill-opacity="1" fill="#f57c00"></path><g id="SvgjsG2164"><text id="SvgjsText2165" font-family="微软雅黑" text-anchor="middle" font-size="14px" width="116px" fill="#ffffff" font-weight="400" align="middle" lineHeight="125%" anchor="middle" family="微软雅黑" size="14px" weight="400" font-style="" opacity="1" y="9.057017543859388" transform="rotate(0)"><tspan id="SvgjsTspan2166" dy="17" x="68"><tspan id="SvgjsTspan2167" style="text-decoration:;">selenium通过http</tspan></tspan><tspan id="SvgjsTspan2168" dy="17" x="68"><tspan id="SvgjsTspan2169" style="text-decoration:;">连接浏览器</tspan></tspan></text></g></g><g id="SvgjsG2170" transform="translate(1142.7293646442474,449.41368177387636)"><path id="SvgjsPath2171" d="M 0 0L 187.92202729045084 0L 203.92202729045084 16L 203.92202729045084 284.4738182261237L 0 284.4738182261237L 0 0Z" stroke="none" fill-opacity="1" fill="#ffffaa"></path><path id="SvgjsPath2172" d="M 187.92202729045084 0L 187.92202729045084 16L 203.92202729045084 16Z" stroke="none" fill-opacity="1" fill="#cdcdcd"></path><path id="SvgjsPath2173" d="M 0 0L 187.92202729045084 0L 203.92202729045084 16L 203.92202729045084 284.4738182261237L 0 284.4738182261237L 0 0Z" stroke="none" fill="none"></path><g id="SvgjsG2174"><text id="SvgjsText2175" font-family="微软雅黑" text-anchor="start" font-size="13px" width="184px" fill="#323232" font-weight="400" align="middle" lineHeight="125%" anchor="start" family="微软雅黑" size="13px" weight="400" font-style="" opacity="1" y="25.61190911306184" transform="rotate(0)"><tspan id="SvgjsTspan2176" dy="16" x="10"><tspan id="SvgjsTspan2177" style="text-decoration:;">控制窗口，由puppeteer或者</tspan></tspan><tspan id="SvgjsTspan2178" dy="16" x="10"><tspan id="SvgjsTspan2179" style="text-decoration:;">selenium自动化框架控制。</tspan></tspan><tspan id="SvgjsTspan2180" dy="16" x="10"><tspan id="SvgjsTspan2181" style="text-decoration:;"> </tspan></tspan><tspan id="SvgjsTspan2182" dy="16" x="10"><tspan id="SvgjsTspan2183" style="text-decoration:;">puppeteer直接通过ws连接即</tspan></tspan><tspan id="SvgjsTspan2184" dy="16" x="10"><tspan id="SvgjsTspan2185" style="text-decoration:;">可，selenium用到</tspan></tspan><tspan id="SvgjsTspan2186" dy="16" x="10"><tspan id="SvgjsTspan2187" style="text-decoration:;">chromedriver.exe，可通过API</tspan></tspan><tspan id="SvgjsTspan2188" dy="16" x="10"><tspan id="SvgjsTspan2189" style="text-decoration:;">文档附带的demo中下载</tspan></tspan><tspan id="SvgjsTspan2190" dy="16" x="10"><tspan id="SvgjsTspan2191" style="text-decoration:;"> </tspan></tspan><tspan id="SvgjsTspan2192" dy="16" x="10"><tspan id="SvgjsTspan2193" style="text-decoration:;">chromedriver.exe放到脚本根目</tspan></tspan><tspan id="SvgjsTspan2194" dy="16" x="10"><tspan id="SvgjsTspan2195" style="text-decoration:;">录，根据浏览器内核使用对应的</tspan></tspan><tspan id="SvgjsTspan2196" dy="16" x="10"><tspan id="SvgjsTspan2197" style="text-decoration:;">chromedriver</tspan></tspan><tspan id="SvgjsTspan2198" dy="16" x="10"><tspan id="SvgjsTspan2199" style="text-decoration:;"> </tspan></tspan><tspan id="SvgjsTspan2200" dy="16" x="10"><tspan id="SvgjsTspan2201" style="text-decoration:;">104内核使用104版本</tspan></tspan><tspan id="SvgjsTspan2202" dy="16" x="10"><tspan id="SvgjsTspan2203" style="text-decoration:;">92内核使用92版本</tspan></tspan></text></g></g><g id="SvgjsG2204"><path id="SvgjsPath2205" d="M1120.479851973683 529.16898148148L1131.1046083089652 529.16898148148L1131.1046083089652 587.0197333533981L1140.1293646442475 587.0197333533981" stroke="#323232" stroke-width="2" fill="none" marker-end="url(#SvgjsMarker2206)"></path></g><g id="SvgjsG2208" transform="translate(1379.1640625,345.6875)"><path id="SvgjsPath2209" d="M 0 525Q 9 525 9 516L 9 271.5Q 9 262.5 22 262.5Q 9 262.5 9 253.5L 9 9Q 9 0 0 0" stroke="rgba(50,50,50,1)" stroke-width="2" fill="none"></path><path id="SvgjsPath2210" d="M 0 0L 126.26315789473438 0L 126.26315789473438 525L 0 525Z" stroke="none" fill="none"></path><g id="SvgjsG2211"><text id="SvgjsText2212" font-family="微软雅黑" text-anchor="start" font-size="13px" width="100px" fill="#323232" font-weight="400" align="middle" lineHeight="125%" anchor="start" family="微软雅黑" size="13px" weight="400" font-style="" opacity="1" y="251.875" transform="rotate(0)"><tspan id="SvgjsTspan2213" dy="16" x="27"><tspan id="SvgjsTspan2214" style="text-decoration:;">浏览器控制</tspan></tspan></text></g></g><g id="SvgjsG2215" transform="translate(892.7693256578941,666.5140107212483)"><path id="SvgjsPath2216" d="M 0 4Q 0 0 4 0L 162.65789473684163 0Q 166.65789473684163 0 166.65789473684163 4L 166.65789473684163 65.99999999999977Q 166.65789473684163 69.99999999999977 162.65789473684163 69.99999999999977L 4 69.99999999999977Q 0 69.99999999999977 0 65.99999999999977Z" stroke="rgba(50,50,50,1)" stroke-width="2" fill-opacity="1" fill="#f57c00"></path><g id="SvgjsG2217"><text id="SvgjsText2218" font-family="微软雅黑" text-anchor="middle" font-size="14px" width="147px" fill="#ffffff" font-weight="700" align="middle" lineHeight="125%" anchor="middle" family="微软雅黑" size="14px" weight="700" font-style="" opacity="1" y="23.249999999999886" transform="rotate(0)"><tspan id="SvgjsTspan2219" dy="17" x="83.5"><tspan id="SvgjsTspan2220" style="text-decoration:;">运行自动化脚本</tspan></tspan></text></g></g><g id="SvgjsG2221"><path id="SvgjsPath2222" d="M976.098273026315 400.7752192982445L976.098273026315 449.8185916179325L898.2693256578951 449.8185916179325L898.2693256578951 496.2619639376205" stroke="#323232" stroke-width="2" fill="none" marker-end="url(#SvgjsMarker2223)"></path></g><g id="SvgjsG2225"><path id="SvgjsPath2226" d="M976.098273026315 400.7752192982445L976.098273026315 449.8185916179325L1051.624588815789 449.8185916179325L1051.624588815789 496.2619639376205" stroke="#323232" stroke-width="2" fill="none" marker-end="url(#SvgjsMarker2227)"></path></g><g id="SvgjsG2229"><path id="SvgjsPath2230" d="M898.2693256578951 559.4759990253395L898.2693256578951 612.495004873294L976.0982730263149 612.495004873294L976.0982730263149 662.9140107212482" stroke="#323232" stroke-width="2" fill="none" marker-end="url(#SvgjsMarker2231)"></path></g><g id="SvgjsG2233"><path id="SvgjsPath2234" d="M1051.6245888157891 559.4759990253395L1051.6245888157891 612.495004873294L976.0982730263149 612.495004873294L976.0982730263149 662.9140107212482" stroke="#323232" stroke-width="2" fill="none" marker-end="url(#SvgjsMarker2235)"></path></g><g id="SvgjsG2237"><path id="SvgjsPath2238" d="M976.0982730263149 737.514010721248L976.0982730263149 774.6621588693962L976.0982730263149 774.6621588693962L976.0982730263149 809.2103070175443" stroke="#323232" stroke-width="2" fill="none" marker-end="url(#SvgjsMarker2239)"></path></g></svg>