<svg id="SvgjsSvg1532" width="1530.171875" height="1147.265625" xmlns="http://www.w3.org/2000/svg" version="1.1" xmlns:xlink="http://www.w3.org/1999/xlink" xmlns:svgjs="http://svgjs.com/svgjs"><defs id="SvgjsDefs1533"><marker id="SvgjsMarker1550" markerWidth="14" markerHeight="10" refX="10" refY="5" viewBox="0 0 14 10" orient="auto" markerUnits="userSpaceOnUse" stroke-dasharray="0,0"><path id="SvgjsPath1551" d="M0,0 L14,5 L0,10 L0,0" fill="#323232" stroke="#323232" stroke-width="1"></path></marker><marker id="SvgjsMarker1568" markerWidth="14" markerHeight="10" refX="10" refY="5" viewBox="0 0 14 10" orient="auto" markerUnits="userSpaceOnUse" stroke-dasharray="0,0"><path id="SvgjsPath1569" d="M0,0 L14,5 L0,10 L0,0" fill="#323232" stroke="#323232" stroke-width="1"></path></marker><marker id="SvgjsMarker1572" markerWidth="14" markerHeight="10" refX="10" refY="5" viewBox="0 0 14 10" orient="auto" markerUnits="userSpaceOnUse" stroke-dasharray="0,0"><path id="SvgjsPath1573" d="M0,0 L14,5 L0,10 L0,0" fill="#323232" stroke="#323232" stroke-width="1"></path></marker><marker id="SvgjsMarker1588" markerWidth="14" markerHeight="10" refX="10" refY="5" viewBox="0 0 14 10" orient="auto" markerUnits="userSpaceOnUse" stroke-dasharray="0,0"><path id="SvgjsPath1589" d="M0,0 L14,5 L0,10 L0,0" fill="#323232" stroke="#323232" stroke-width="1"></path></marker><marker id="SvgjsMarker1600" markerWidth="14" markerHeight="10" refX="10" refY="5" viewBox="0 0 14 10" orient="auto" markerUnits="userSpaceOnUse" stroke-dasharray="0,0"><path id="SvgjsPath1601" d="M0,0 L14,5 L0,10 L0,0" fill="#323232" stroke="#323232" stroke-width="1"></path></marker><marker id="SvgjsMarker1624" markerWidth="14" markerHeight="10" refX="10" refY="5" viewBox="0 0 14 10" orient="auto" markerUnits="userSpaceOnUse" stroke-dasharray="0,0"><path id="SvgjsPath1625" d="M0,0 L14,5 L0,10 L0,0" fill="#323232" stroke="#323232" stroke-width="1"></path></marker><marker id="SvgjsMarker1634" markerWidth="14" markerHeight="10" refX="10" refY="5" viewBox="0 0 14 10" orient="auto" markerUnits="userSpaceOnUse" stroke-dasharray="0,0"><path id="SvgjsPath1635" d="M0,0 L14,5 L0,10 L0,0" fill="#323232" stroke="#323232" stroke-width="1"></path></marker><marker id="SvgjsMarker1644" markerWidth="14" markerHeight="10" refX="10" refY="5" viewBox="0 0 14 10" orient="auto" markerUnits="userSpaceOnUse" stroke-dasharray="0,0"><path id="SvgjsPath1645" d="M0,0 L14,5 L0,10 L0,0" fill="#323232" stroke="#323232" stroke-width="1"></path></marker><marker id="SvgjsMarker1658" markerWidth="14" markerHeight="10" refX="10" refY="5" viewBox="0 0 14 10" orient="auto" markerUnits="userSpaceOnUse" stroke-dasharray="0,0"><path id="SvgjsPath1659" d="M0,0 L14,5 L0,10 L0,0" fill="#323232" stroke="#323232" stroke-width="1"></path></marker><marker id="SvgjsMarker1662" markerWidth="14" markerHeight="10" refX="10" refY="5" viewBox="0 0 14 10" orient="auto" markerUnits="userSpaceOnUse" stroke-dasharray="0,0"><path id="SvgjsPath1663" d="M0,0 L14,5 L0,10 L0,0" fill="#323232" stroke="#323232" stroke-width="1"></path></marker><marker id="SvgjsMarker1666" markerWidth="14" markerHeight="10" refX="10" refY="5" viewBox="0 0 14 10" orient="auto" markerUnits="userSpaceOnUse" stroke-dasharray="0,0"><path id="SvgjsPath1667" d="M0,0 L14,5 L0,10 L0,0" fill="#323232" stroke="#323232" stroke-width="1"></path></marker><marker id="SvgjsMarker1684" markerWidth="14" markerHeight="10" refX="10" refY="5" viewBox="0 0 14 10" orient="auto" markerUnits="userSpaceOnUse" stroke-dasharray="0,0"><path id="SvgjsPath1685" d="M0,0 L14,5 L0,10 L0,0" fill="#323232" stroke="#323232" stroke-width="1"></path></marker><marker id="SvgjsMarker1730" markerWidth="14" markerHeight="10" refX="10" refY="5" viewBox="0 0 14 10" orient="auto" markerUnits="userSpaceOnUse" stroke-dasharray="0,0"><path id="SvgjsPath1731" d="M0,0 L14,5 L0,10 L0,0" fill="#323232" stroke="#323232" stroke-width="1"></path></marker><marker id="SvgjsMarker1760" markerWidth="14" markerHeight="10" refX="10" refY="5" viewBox="0 0 14 10" orient="auto" markerUnits="userSpaceOnUse" stroke-dasharray="0,0"><path id="SvgjsPath1761" d="M0,0 L14,5 L0,10 L0,0" fill="#323232" stroke="#323232" stroke-width="1"></path></marker><marker id="SvgjsMarker1777" markerWidth="14" markerHeight="10" refX="10" refY="5" viewBox="0 0 14 10" orient="auto" markerUnits="userSpaceOnUse" stroke-dasharray="0,0"><path id="SvgjsPath1778" d="M0,0 L14,5 L0,10 L0,0" fill="#323232" stroke="#323232" stroke-width="1"></path></marker><marker id="SvgjsMarker1781" markerWidth="14" markerHeight="10" refX="10" refY="5" viewBox="0 0 14 10" orient="auto" markerUnits="userSpaceOnUse" stroke-dasharray="0,0"><path id="SvgjsPath1782" d="M0,0 L14,5 L0,10 L0,0" fill="#323232" stroke="#323232" stroke-width="1"></path></marker><marker id="SvgjsMarker1785" markerWidth="14" markerHeight="10" refX="10" refY="5" viewBox="0 0 14 10" orient="auto" markerUnits="userSpaceOnUse" stroke-dasharray="0,0"><path id="SvgjsPath1786" d="M0,0 L14,5 L0,10 L0,0" fill="#323232" stroke="#323232" stroke-width="1"></path></marker><marker id="SvgjsMarker1789" markerWidth="14" markerHeight="10" refX="10" refY="5" viewBox="0 0 14 10" orient="auto" markerUnits="userSpaceOnUse" stroke-dasharray="0,0"><path id="SvgjsPath1790" d="M0,0 L14,5 L0,10 L0,0" fill="#323232" stroke="#323232" stroke-width="1"></path></marker><marker id="SvgjsMarker1793" markerWidth="14" markerHeight="10" refX="10" refY="5" viewBox="0 0 14 10" orient="auto" markerUnits="userSpaceOnUse" stroke-dasharray="0,0"><path id="SvgjsPath1794" d="M0,0 L14,5 L0,10 L0,0" fill="#323232" stroke="#323232" stroke-width="1"></path></marker></defs><g id="SvgjsG1534" transform="translate(648.6455592105247,25.00328947368419)"><path id="SvgjsPath1535" d="M 25.385964912280702 0L 108.40350877192982 0C 142.2514619883041 0 142.2514619883041 76.15789473684211 108.40350877192982 76.15789473684211L 25.385964912280702 76.15789473684211C -8.461988304093568 76.15789473684211 -8.461988304093568 0 25.385964912280702 0Z" stroke="none" fill-opacity="1" fill="#fda98d"></path><g id="SvgjsG1536"><text id="SvgjsText1537" font-family="微软雅黑" text-anchor="middle" font-size="13px" width="114px" fill="#ffffff" font-weight="400" align="middle" lineHeight="125%" anchor="middle" family="微软雅黑" size="13px" weight="400" font-style="" opacity="1" y="27.453947368421055" transform="rotate(0)"><tspan id="SvgjsTspan1538" dy="16" x="67"><tspan id="SvgjsTspan1539" style="text-decoration:;">打开比特浏览器</tspan></tspan></text></g></g><g id="SvgjsG1540" transform="translate(589.0534539473671,140.79276315789477)"><path id="SvgjsPath1541" d="M 0 0L 252.97368421052573 0L 252.97368421052573 75.48245614035085L 0 75.48245614035085L 0 0ZM 20 0L 20 75.48245614035085M 232.97368421052573 0L 232.97368421052573 75.48245614035085" stroke="rgba(33,41,48,1)" stroke-width="2" fill-opacity="1" fill="#2196f3"></path><g id="SvgjsG1542"><text id="SvgjsText1543" font-family="微软雅黑" text-anchor="middle" font-size="13px" width="213px" fill="#ffffff" font-weight="400" align="middle" lineHeight="125%" anchor="middle" family="微软雅黑" size="13px" weight="400" font-style="" opacity="1" y="18.616228070175424" transform="rotate(0)"><tspan id="SvgjsTspan1544" dy="16" x="126.5"><tspan id="SvgjsTspan1545" style="text-decoration:;">获取API调用端口，默认端口54345</tspan></tspan><tspan id="SvgjsTspan1546" dy="16" x="126.5"><tspan id="SvgjsTspan1547" style="text-decoration:;">http://127.0.0.1:54345</tspan></tspan></text></g></g><g id="SvgjsG1548"><path id="SvgjsPath1549" d="M715.5402960526299 101.1611842105263L715.5402960526299 120.97697368421055L715.5402960526287 120.97697368421055L715.5402960526287 137.19276315789477" stroke="#323232" stroke-width="2" fill="none" marker-end="url(#SvgjsMarker1550)"></path></g><g id="SvgjsG1552" transform="translate(333.43503289473733,334.0559210526308)"><path id="SvgjsPath1553" d="M 0 4Q 0 0 4 0L 209.34210526315846 0Q 213.34210526315846 0 213.34210526315846 4L 213.34210526315846 61.71929824561448Q 213.34210526315846 65.71929824561448 209.34210526315846 65.71929824561448L 4 65.71929824561448Q 0 65.71929824561448 0 61.71929824561448Z" stroke="rgba(33,41,48,1)" stroke-width="2" fill-opacity="1" fill="#2196f3"></path><g id="SvgjsG1554"><text id="SvgjsText1555" font-family="微软雅黑" text-anchor="middle" font-size="14px" width="194px" fill="#ffffff" font-weight="400" align="middle" lineHeight="125%" anchor="middle" family="微软雅黑" size="14px" weight="400" font-style="" opacity="1" y="21.10964912280724" transform="rotate(0)"><tspan id="SvgjsTspan1556" dy="17" x="107"><tspan id="SvgjsTspan1557" style="text-decoration:;">创建/更新浏览器窗口</tspan></tspan></text></g></g><g id="SvgjsG1558" transform="translate(892.7771381578942,334.0559210526308)"><path id="SvgjsPath1559" d="M 0 4Q 0 0 4 0L 162.65789473684163 0Q 166.65789473684163 0 166.65789473684163 4L 166.65789473684163 61.719298245613686Q 166.65789473684163 65.71929824561369 162.65789473684163 65.71929824561369L 4 65.71929824561369Q 0 65.71929824561369 0 61.719298245613686Z" stroke="rgba(33,41,48,1)" stroke-width="2" fill-opacity="1" fill="#f57c00"></path><g id="SvgjsG1560"><text id="SvgjsText1561" font-family="微软雅黑" text-anchor="middle" font-size="14px" width="147px" fill="#ffffff" font-weight="400" align="middle" lineHeight="125%" anchor="middle" family="微软雅黑" size="14px" weight="400" font-style="" opacity="1" y="12.609649122806843" transform="rotate(0)"><tspan id="SvgjsTspan1562" dy="17" x="83.5"><tspan id="SvgjsTspan1563" style="text-decoration:;">打开浏览器窗口</tspan></tspan><tspan id="SvgjsTspan1564" dy="17" x="83.5"><tspan id="SvgjsTspan1565" style="text-decoration:;">/browser/open</tspan></tspan></text></g></g><g id="SvgjsG1566"><path id="SvgjsPath1567" d="M715.5402960526299 217.2752192982456L715.5402960526299 275.165570175438L440.1060855263156 275.165570175438L440.1060855263156 330.4559210526304" stroke="#323232" stroke-width="2" fill="none" marker-end="url(#SvgjsMarker1568)"></path></g><g id="SvgjsG1570"><path id="SvgjsPath1571" d="M715.5402960526299 217.2752192982456L715.5402960526299 275.165570175438L976.1060855263127 275.165570175438L976.1060855263127 330.4559210526304" stroke="#323232" stroke-width="2" fill="none" marker-end="url(#SvgjsMarker1572)"></path></g><g id="SvgjsG1574" transform="translate(25.013980263157762,334.45065789473557)"><path id="SvgjsPath1575" d="M 0 0L 235.5789473684205 0L 251.5789473684205 16L 251.5789473684205 64.92982456140419L 0 64.92982456140419L 0 0Z" stroke="none" fill-opacity="1" fill="#ffffaa"></path><path id="SvgjsPath1576" d="M 235.5789473684205 0L 235.5789473684205 16L 251.5789473684205 16Z" stroke="none" fill-opacity="1" fill="#cdcd78"></path><path id="SvgjsPath1577" d="M 0 0L 235.5789473684205 0L 251.5789473684205 16L 251.5789473684205 64.92982456140419L 0 64.92982456140419L 0 0Z" stroke="none" fill="none"></path><g id="SvgjsG1578"><text id="SvgjsText1579" font-family="微软雅黑" text-anchor="start" font-size="13px" width="232px" fill="#323232" font-weight="400" align="middle" lineHeight="125%" anchor="start" family="微软雅黑" size="13px" weight="400" font-style="" opacity="1" y="5.3399122807020944" transform="rotate(0)"><tspan id="SvgjsTspan1580" dy="16" x="10"><tspan id="SvgjsTspan1581" style="text-decoration:;">创建/更新：/browser/update</tspan></tspan><tspan id="SvgjsTspan1582" dy="16" x="10"><tspan id="SvgjsTspan1583" style="text-decoration:;">按字段更新：/browser/update/partial</tspan></tspan><tspan id="SvgjsTspan1584" dy="16" x="10"><tspan id="SvgjsTspan1585" style="text-decoration:;">更新代理：/browser/proxy/update</tspan></tspan></text></g></g><g id="SvgjsG1586"><path id="SvgjsPath1587" d="M332.43503289473733 366.91557017543806L305.0139802631584 366.91557017543806L305.0139802631584 366.91557017543767L279.1929276315795 366.91557017543767" stroke="#323232" stroke-width="2" fill="none" marker-end="url(#SvgjsMarker1588)"></path></g><g id="SvgjsG1590" transform="translate(333.43503289473733,453.1611842105264)"><path id="SvgjsPath1591" d="M 0 4Q 0 0 4 0L 209.34210526315837 0Q 213.34210526315837 0 213.34210526315837 4L 213.34210526315837 61.526315789473756Q 213.34210526315837 65.52631578947376 209.34210526315837 65.52631578947376L 4 65.52631578947376Q 0 65.52631578947376 0 61.526315789473756Z" stroke="rgba(33,41,48,1)" stroke-width="2" fill-opacity="1" fill="#2196f3"></path><g id="SvgjsG1592"><text id="SvgjsText1593" font-family="微软雅黑" text-anchor="middle" font-size="13px" width="194px" fill="#ffffff" font-weight="400" align="middle" lineHeight="125%" anchor="middle" family="微软雅黑" size="13px" weight="400" font-style="" opacity="1" y="13.638157894736878" transform="rotate(0)"><tspan id="SvgjsTspan1594" dy="16" x="107"><tspan id="SvgjsTspan1595" style="text-decoration:;">删除窗口</tspan></tspan><tspan id="SvgjsTspan1596" dy="16" x="107"><tspan id="SvgjsTspan1597" style="text-decoration:;">/browser/delete</tspan></tspan></text></g></g><g id="SvgjsG1598"><path id="SvgjsPath1599" d="M440.10608552631544 400.7752192982453L440.10608552631544 426.46820175438586L440.10608552631567 426.46820175438586L440.10608552631567 449.5611842105264" stroke="#323232" stroke-width="2" fill="none" marker-end="url(#SvgjsMarker1600)"></path></g><g id="SvgjsG1602" transform="translate(892.7771381578942,812.8103070175443)"><path id="SvgjsPath1603" d="M 0 4Q 0 0 4 0L 162.65789473684163 0Q 166.65789473684163 0 166.65789473684163 4L 166.65789473684163 65.99999999999977Q 166.65789473684163 69.99999999999977 162.65789473684163 69.99999999999977L 4 69.99999999999977Q 0 69.99999999999977 0 65.99999999999977Z" stroke="rgba(33,41,48,1)" stroke-width="2" fill-opacity="1" fill="#f57c00"></path><g id="SvgjsG1604"><text id="SvgjsText1605" font-family="微软雅黑" text-anchor="middle" font-size="13px" width="147px" fill="#ffffff" font-weight="400" align="middle" lineHeight="125%" anchor="middle" family="微软雅黑" size="13px" weight="400" font-style="" opacity="1" y="15.874999999999886" transform="rotate(0)"><tspan id="SvgjsTspan1606" dy="16" x="83.5"><tspan id="SvgjsTspan1607" style="text-decoration:;">关闭窗口</tspan></tspan><tspan id="SvgjsTspan1608" dy="16" x="83.5"><tspan id="SvgjsTspan1609" style="text-decoration:;">/browser/close</tspan></tspan></text></g></g><g id="SvgjsG1610" transform="translate(1140.4876644736828,813.6392543859656)"><path id="SvgjsPath1611" d="M 0 0L 201.3684210526319 0L 217.3684210526319 16L 217.3684210526319 68.34210526315701L 0 68.34210526315701L 0 0Z" stroke="none" fill-opacity="1" fill="#ffffaa"></path><path id="SvgjsPath1612" d="M 201.3684210526319 0L 201.3684210526319 16L 217.3684210526319 16Z" stroke="none" fill-opacity="1" fill="#cdcd78"></path><path id="SvgjsPath1613" d="M 0 0L 201.3684210526319 0L 217.3684210526319 16L 217.3684210526319 68.34210526315701L 0 68.34210526315701L 0 0Z" stroke="none" fill="none"></path><g id="SvgjsG1614"><text id="SvgjsText1615" font-family="微软雅黑" text-anchor="start" font-size="13px" width="198px" fill="#323232" font-weight="400" align="middle" lineHeight="125%" anchor="start" family="微软雅黑" size="13px" weight="400" font-style="" opacity="1" y="7.046052631578505" transform="rotate(0)"><tspan id="SvgjsTspan1616" dy="16" x="10"><tspan id="SvgjsTspan1617" style="text-decoration:;">自动化脚本运行完毕后，可调用接</tspan></tspan><tspan id="SvgjsTspan1618" dy="16" x="10"><tspan id="SvgjsTspan1619" style="text-decoration:;">口关闭窗口，也可通过自己的自动</tspan></tspan><tspan id="SvgjsTspan1620" dy="16" x="10"><tspan id="SvgjsTspan1621" style="text-decoration:;">化框架关闭窗口</tspan></tspan></text></g></g><g id="SvgjsG1622"><path id="SvgjsPath1623" d="M1060.4350328947357 847.8103070175441L1099.961348684209 847.8103070175441L1099.961348684209 847.8103070175441L1137.887664473683 847.8103070175441" stroke="#323232" stroke-width="2" fill="none" marker-end="url(#SvgjsMarker1624)"></path></g><g id="SvgjsG1626" transform="translate(648.6455592105247,1046.266447368421)"><path id="SvgjsPath1627" d="M 25.385964912280702 0L 108.40350877192982 0C 142.2514619883041 0 142.2514619883041 76.15789473684211 108.40350877192982 76.15789473684211L 25.385964912280702 76.15789473684211C -8.461988304093568 76.15789473684211 -8.461988304093568 0 25.385964912280702 0Z" stroke="none" fill-opacity="1" fill="#fda98d"></path><g id="SvgjsG1628"><text id="SvgjsText1629" font-family="微软雅黑" text-anchor="middle" font-size="13px" width="114px" fill="#ffffff" font-weight="400" align="middle" lineHeight="125%" anchor="middle" family="微软雅黑" size="13px" weight="400" font-style="" opacity="1" y="27.453947368421055" transform="rotate(0)"><tspan id="SvgjsTspan1630" dy="16" x="67"><tspan id="SvgjsTspan1631" style="text-decoration:;">关闭比特浏览器</tspan></tspan></text></g></g><g id="SvgjsG1632"><path id="SvgjsPath1633" d="M976.1060855263145 883.8103070175441L976.1060855263145 964.5383771929826L715.5402960526299 964.5383771929826L715.5402960526299 1043.6664473684211" stroke="#323232" stroke-width="2" fill="none" marker-end="url(#SvgjsMarker1634)"></path></g><g id="SvgjsG1636" transform="translate(608.8692434210509,334.0559210526304)"><path id="SvgjsPath1637" d="M 0 4Q 0 0 4 0L 209.34210526315846 0Q 213.34210526315846 0 213.34210526315846 4L 213.34210526315846 61.71929824561448Q 213.34210526315846 65.71929824561448 209.34210526315846 65.71929824561448L 4 65.71929824561448Q 0 65.71929824561448 0 61.71929824561448Z" stroke="rgba(33,41,48,1)" stroke-width="2" fill-opacity="1" fill="#2196f3"></path><g id="SvgjsG1638"><text id="SvgjsText1639" font-family="微软雅黑" text-anchor="middle" font-size="14px" width="194px" fill="#ffffff" font-weight="400" align="middle" lineHeight="125%" anchor="middle" family="微软雅黑" size="14px" weight="400" font-style="" opacity="1" y="21.10964912280724" transform="rotate(0)"><tspan id="SvgjsTspan1640" dy="17" x="107"><tspan id="SvgjsTspan1641" style="text-decoration:;">分组管理</tspan></tspan></text></g></g><g id="SvgjsG1642"><path id="SvgjsPath1643" d="M715.54029605263 217.2752192982456L715.54029605263 275.165570175438L715.5402960526301 275.165570175438L715.5402960526301 330.4559210526304" stroke="#323232" stroke-width="2" fill="none" marker-end="url(#SvgjsMarker1644)"></path></g><g id="SvgjsG1646" transform="translate(608.8692434210509,453.06469298245605)"><path id="SvgjsPath1647" d="M 0 4Q 0 0 4 0L 209.34210526315846 0Q 213.34210526315846 0 213.34210526315846 4L 213.34210526315846 61.71929824561448Q 213.34210526315846 65.71929824561448 209.34210526315846 65.71929824561448L 4 65.71929824561448Q 0 65.71929824561448 0 61.71929824561448Z" stroke="rgba(33,41,48,1)" stroke-width="2" fill-opacity="1" fill="#2196f3"></path><g id="SvgjsG1648"><text id="SvgjsText1649" font-family="微软雅黑" text-anchor="middle" font-size="14px" width="194px" fill="#ffffff" font-weight="400" align="middle" lineHeight="125%" anchor="middle" family="微软雅黑" size="14px" weight="400" font-style="" opacity="1" y="3.609649122807241" transform="rotate(0)"><tspan id="SvgjsTspan1650" dy="17" x="107"><tspan id="SvgjsTspan1651" style="text-decoration:;">创建分组：/group/add</tspan></tspan><tspan id="SvgjsTspan1652" dy="17" x="107"><tspan id="SvgjsTspan1653" style="text-decoration:;">修改分组：/group/edit</tspan></tspan><tspan id="SvgjsTspan1654" dy="17" x="107"><tspan id="SvgjsTspan1655" style="text-decoration:;">删除分组：/group/delete</tspan></tspan></text></g></g><g id="SvgjsG1656"><path id="SvgjsPath1657" d="M715.5402960526301 400.7752192982449L715.5402960526301 426.41995614035045L715.5402960526301 426.41995614035045L715.5402960526301 449.4646929824559" stroke="#323232" stroke-width="2" fill="none" marker-end="url(#SvgjsMarker1658)"></path></g><g id="SvgjsG1660"><path id="SvgjsPath1661" d="M715.5402960526301 519.7839912280706L715.5402960526301 782.5252192982458L715.54029605263 782.5252192982458L715.54029605263 1043.6664473684211" stroke="#323232" stroke-width="2" fill="none" marker-end="url(#SvgjsMarker1662)"></path></g><g id="SvgjsG1664"><path id="SvgjsPath1665" d="M440.1060855263165 519.6875000000002L440.1060855263165 782.4769736842106L715.54029605263 782.4769736842106L715.54029605263 1043.6664473684211" stroke="#323232" stroke-width="2" fill="none" marker-end="url(#SvgjsMarker1666)"></path></g><g id="SvgjsG1668" transform="translate(25.013980263157762,25.00328947368419)"><path id="SvgjsPath1669" d="M 0 0L 299.36842105263156 0L 299.36842105263156 56.000000000000014L 0 56.000000000000014Z" stroke="rgba(33,41,48,1)" stroke-width="2" fill-opacity="1" fill="#ffb74d"></path><g id="SvgjsG1670"><text id="SvgjsText1671" font-family="微软雅黑" text-anchor="middle" font-size="18px" width="280px" fill="#ffffff" font-weight="700" align="middle" lineHeight="125%" anchor="middle" family="微软雅黑" size="18px" weight="700" font-style="" opacity="1" y="12.250000000000007" transform="rotate(0)"><tspan id="SvgjsTspan1672" dy="22" x="150"><tspan id="SvgjsTspan1673" style="text-decoration:;">Local Api 使用线路图</tspan></tspan></text></g></g><g id="SvgjsG1674" transform="translate(901.171875,158.327850877193)"><path id="SvgjsPath1675" d="M 0 4Q 0 0 4 0L 208.26315789473597 0Q 212.26315789473597 0 212.26315789473597 4L 212.26315789473597 36.41228070175441Q 212.26315789473597 40.41228070175441 208.26315789473597 40.41228070175441L 4 40.41228070175441Q 0 40.41228070175441 0 36.41228070175441Z" stroke="rgba(33,41,48,1)" stroke-width="2" fill-opacity="1" fill="#2196f3"></path><g id="SvgjsG1676"><text id="SvgjsText1677" font-family="微软雅黑" text-anchor="middle" font-size="13px" width="193px" fill="#ffffff" font-weight="400" align="middle" lineHeight="125%" anchor="middle" family="微软雅黑" size="13px" weight="400" font-style="" opacity="1" y="1.081140350877206" transform="rotate(0)"><tspan id="SvgjsTspan1678" dy="16" x="106.5"><tspan id="SvgjsTspan1679" style="text-decoration:;">打开比特浏览器系统设置查看</tspan></tspan><tspan id="SvgjsTspan1680" dy="16" x="106.5"><tspan id="SvgjsTspan1681" style="text-decoration:;">基础设置&gt;&gt;本地接口</tspan></tspan></text></g></g><g id="SvgjsG1682"><path id="SvgjsPath1683" d="M843.0271381578928 178.5339912280702L871.5995065789464 178.5339912280702L871.5995065789464 178.5339912280702L897.571875 178.5339912280702" stroke="#323232" stroke-width="2" fill="none" marker-end="url(#SvgjsMarker1684)"></path></g><g id="SvgjsG1686" transform="translate(25.013980263157762,98.05592105263162)"><path id="SvgjsPath1687" d="M 0 0L 283.36842105263156 0L 299.36842105263156 16L 299.36842105263156 118.21929824561397L 0 118.21929824561397L 0 0Z" stroke="none" fill-opacity="1" fill="#ffffaa"></path><path id="SvgjsPath1688" d="M 283.36842105263156 0L 283.36842105263156 16L 299.36842105263156 16Z" stroke="none" fill-opacity="1" fill="#cdcd78"></path><path id="SvgjsPath1689" d="M 0 0L 283.36842105263156 0L 299.36842105263156 16L 299.36842105263156 118.21929824561397L 0 118.21929824561397L 0 0Z" stroke="none" fill="none"></path><g id="SvgjsG1690"><text id="SvgjsText1691" font-family="微软雅黑" text-anchor="start" font-size="13px" width="280px" fill="#323232" font-weight="400" align="middle" lineHeight="125%" anchor="start" family="微软雅黑" size="13px" weight="400" font-style="" opacity="1" y="15.984649122806985" transform="rotate(0)"><tspan id="SvgjsTspan1692" dy="16" x="10"><tspan id="SvgjsTspan1693" style="text-decoration:;">注意：本指南提供API调用指南，更多接口请参考</tspan></tspan><tspan id="SvgjsTspan1694" dy="16" x="10"><tspan id="SvgjsTspan1695" style="text-decoration:;">API使用文档</tspan></tspan><tspan id="SvgjsTspan1696" dy="16" x="10"><tspan id="SvgjsTspan1697" style="text-decoration:;"> </tspan></tspan><tspan id="SvgjsTspan1698" dy="16" x="10"><tspan id="SvgjsTspan1699" style="text-decoration:;">调试接口，建议使用postman导入API文档中的</tspan></tspan><tspan id="SvgjsTspan1700" dy="16" x="10"><tspan id="SvgjsTspan1701" style="text-decoration:;">json文件，接口调试成功后，再集成到脚本内。</tspan></tspan></text></g></g><g id="SvgjsG1702" transform="translate(833.7771381578951,499.86196393762054)"><path id="SvgjsPath1703" d="M 0 4Q 0 0 4 0L 125 0Q 129 0 129 4L 129 54.614035087718776Q 129 58.614035087718776 125 58.614035087718776L 4 58.614035087718776Q 0 58.614035087718776 0 54.614035087718776Z" stroke="rgba(33,41,48,1)" stroke-width="2" fill-opacity="1" fill="#f57c00"></path><g id="SvgjsG1704"><text id="SvgjsText1705" font-family="微软雅黑" text-anchor="middle" font-size="14px" width="109px" fill="#ffffff" font-weight="400" align="middle" lineHeight="125%" anchor="middle" family="微软雅黑" size="14px" weight="400" font-style="" opacity="1" y="9.057017543859388" transform="rotate(0)"><tspan id="SvgjsTspan1706" dy="17" x="64.5"><tspan id="SvgjsTspan1707" style="text-decoration:;">puppeteer通过</tspan></tspan><tspan id="SvgjsTspan1708" dy="17" x="64.5"><tspan id="SvgjsTspan1709" style="text-decoration:;">ws连接浏览器</tspan></tspan></text></g></g><g id="SvgjsG1710" transform="translate(1140.4876644736828,312.5997807017529)"><path id="SvgjsPath1711" d="M 0 0L 192.4210526315801 0L 208.4210526315801 16L 208.4210526315801 108.63157894736958L 0 108.63157894736958L 0 0Z" stroke="none" fill-opacity="1" fill="#ffffaa"></path><path id="SvgjsPath1712" d="M 192.4210526315801 0L 192.4210526315801 16L 208.4210526315801 16Z" stroke="none" fill-opacity="1" fill="#cdcd78"></path><path id="SvgjsPath1713" d="M 0 0L 192.4210526315801 0L 208.4210526315801 16L 208.4210526315801 108.63157894736958L 0 108.63157894736958L 0 0Z" stroke="none" fill="none"></path><g id="SvgjsG1714"><text id="SvgjsText1715" font-family="微软雅黑" text-anchor="start" font-size="13px" width="189px" fill="#323232" font-weight="400" align="middle" lineHeight="125%" anchor="start" family="微软雅黑" size="13px" weight="400" font-style="" opacity="1" y="2.690789473684788" transform="rotate(0)"><tspan id="SvgjsTspan1716" dy="16" x="10"><tspan id="SvgjsTspan1717" style="text-decoration:;">Local Api本身不提供浏览器控制</tspan></tspan><tspan id="SvgjsTspan1718" dy="16" x="10"><tspan id="SvgjsTspan1719" style="text-decoration:;">接口</tspan></tspan><tspan id="SvgjsTspan1720" dy="16" x="10"><tspan id="SvgjsTspan1721" style="text-decoration:;">由接口返回puppeteer连接用到</tspan></tspan><tspan id="SvgjsTspan1722" dy="16" x="10"><tspan id="SvgjsTspan1723" style="text-decoration:;">的ws地址，以及selenium用到的</tspan></tspan><tspan id="SvgjsTspan1724" dy="16" x="10"><tspan id="SvgjsTspan1725" style="text-decoration:;">http连接地址，内核版本，以及</tspan></tspan><tspan id="SvgjsTspan1726" dy="16" x="10"><tspan id="SvgjsTspan1727" style="text-decoration:;">chromedriver路径。</tspan></tspan></text></g></g><g id="SvgjsG1728"><path id="SvgjsPath1729" d="M1060.4350328947357 366.91557017543767L1099.9613486842093 366.91557017543767L1099.9613486842093 366.91557017543767L1137.887664473683 366.91557017543767" stroke="#323232" stroke-width="2" fill="none" marker-end="url(#SvgjsMarker1730)"></path></g><g id="SvgjsG1732" transform="translate(983.7771381578949,499.86196393762054)"><path id="SvgjsPath1733" d="M 0 4Q 0 0 4 0L 131.71052631578846 0Q 135.71052631578846 0 135.71052631578846 4L 135.71052631578846 54.614035087718776Q 135.71052631578846 58.614035087718776 131.71052631578846 58.614035087718776L 4 58.614035087718776Q 0 58.614035087718776 0 54.614035087718776Z" stroke="rgba(33,41,48,1)" stroke-width="2" fill-opacity="1" fill="#f57c00"></path><g id="SvgjsG1734"><text id="SvgjsText1735" font-family="微软雅黑" text-anchor="middle" font-size="14px" width="116px" fill="#ffffff" font-weight="400" align="middle" lineHeight="125%" anchor="middle" family="微软雅黑" size="14px" weight="400" font-style="" opacity="1" y="9.057017543859388" transform="rotate(0)"><tspan id="SvgjsTspan1736" dy="17" x="68"><tspan id="SvgjsTspan1737" style="text-decoration:;">selenium通过http</tspan></tspan><tspan id="SvgjsTspan1738" dy="17" x="68"><tspan id="SvgjsTspan1739" style="text-decoration:;">连接浏览器</tspan></tspan></text></g></g><g id="SvgjsG1740" transform="translate(1159.7371771442474,529.7295565302137)"><path id="SvgjsPath1741" d="M 0 0L 187.92202729045084 0L 203.92202729045084 16L 203.92202729045084 175.41150097466073L 0 175.41150097466073L 0 0Z" stroke="none" fill-opacity="1" fill="#ffffaa"></path><path id="SvgjsPath1742" d="M 187.92202729045084 0L 187.92202729045084 16L 203.92202729045084 16Z" stroke="none" fill-opacity="1" fill="#cdcd78"></path><path id="SvgjsPath1743" d="M 0 0L 187.92202729045084 0L 203.92202729045084 16L 203.92202729045084 175.41150097466073L 0 175.41150097466073L 0 0Z" stroke="none" fill="none"></path><g id="SvgjsG1744"><text id="SvgjsText1745" font-family="微软雅黑" text-anchor="start" font-size="13px" width="184px" fill="#323232" font-weight="400" align="middle" lineHeight="125%" anchor="start" family="微软雅黑" size="13px" weight="400" font-style="" opacity="1" y="36.08075048733036" transform="rotate(0)"><tspan id="SvgjsTspan1746" dy="16" x="10"><tspan id="SvgjsTspan1747" style="text-decoration:;">控制窗口，由puppeteer或者</tspan></tspan><tspan id="SvgjsTspan1748" dy="16" x="10"><tspan id="SvgjsTspan1749" style="text-decoration:;">selenium自动化框架控制。</tspan></tspan><tspan id="SvgjsTspan1750" dy="16" x="10"><tspan id="SvgjsTspan1751" style="text-decoration:;"> </tspan></tspan><tspan id="SvgjsTspan1752" dy="16" x="10"><tspan id="SvgjsTspan1753" style="text-decoration:;">puppeteer直接通过ws连接即</tspan></tspan><tspan id="SvgjsTspan1754" dy="16" x="10"><tspan id="SvgjsTspan1755" style="text-decoration:;">可，selenium通过open接口返</tspan></tspan><tspan id="SvgjsTspan1756" dy="16" x="10"><tspan id="SvgjsTspan1757" style="text-decoration:;">回的driver连接即可。</tspan></tspan></text></g></g><g id="SvgjsG1758"><path id="SvgjsPath1759" d="M1120.487664473683 529.16898148148L1139.6124208089652 529.16898148148L1139.6124208089652 614.579839769896L1157.1371771442475 614.579839769896" stroke="#323232" stroke-width="2" fill="none" marker-end="url(#SvgjsMarker1760)"></path></g><g id="SvgjsG1762" transform="translate(1379.171875,345.6875)"><path id="SvgjsPath1763" d="M 0 525Q 9 525 9 516L 9 271.5Q 9 262.5 22 262.5Q 9 262.5 9 253.5L 9 9Q 9 0 0 0" stroke="rgba(33,41,48,1)" stroke-width="2" fill="none"></path><path id="SvgjsPath1764" d="M 0 0L 126.26315789473438 0L 126.26315789473438 525L 0 525Z" stroke="none" fill="none"></path><g id="SvgjsG1765"><text id="SvgjsText1766" font-family="微软雅黑" text-anchor="start" font-size="13px" width="100px" fill="#323232" font-weight="400" align="middle" lineHeight="125%" anchor="start" family="微软雅黑" size="13px" weight="400" font-style="" opacity="1" y="251.875" transform="rotate(0)"><tspan id="SvgjsTspan1767" dy="16" x="27"><tspan id="SvgjsTspan1768" style="text-decoration:;">浏览器控制</tspan></tspan></text></g></g><g id="SvgjsG1769" transform="translate(892.7771381578941,666.5140107212483)"><path id="SvgjsPath1770" d="M 0 4Q 0 0 4 0L 162.65789473684163 0Q 166.65789473684163 0 166.65789473684163 4L 166.65789473684163 65.99999999999977Q 166.65789473684163 69.99999999999977 162.65789473684163 69.99999999999977L 4 69.99999999999977Q 0 69.99999999999977 0 65.99999999999977Z" stroke="rgba(33,41,48,1)" stroke-width="2" fill-opacity="1" fill="#f57c00"></path><g id="SvgjsG1771"><text id="SvgjsText1772" font-family="微软雅黑" text-anchor="middle" font-size="14px" width="147px" fill="#ffffff" font-weight="700" align="middle" lineHeight="125%" anchor="middle" family="微软雅黑" size="14px" weight="700" font-style="" opacity="1" y="23.249999999999886" transform="rotate(0)"><tspan id="SvgjsTspan1773" dy="17" x="83.5"><tspan id="SvgjsTspan1774" style="text-decoration:;">运行自动化脚本</tspan></tspan></text></g></g><g id="SvgjsG1775"><path id="SvgjsPath1776" d="M976.106085526315 400.7752192982445L976.106085526315 449.8185916179325L898.2771381578951 449.8185916179325L898.2771381578951 496.2619639376205" stroke="#323232" stroke-width="2" fill="none" marker-end="url(#SvgjsMarker1777)"></path></g><g id="SvgjsG1779"><path id="SvgjsPath1780" d="M976.106085526315 400.7752192982445L976.106085526315 449.8185916179325L1051.632401315789 449.8185916179325L1051.632401315789 496.2619639376205" stroke="#323232" stroke-width="2" fill="none" marker-end="url(#SvgjsMarker1781)"></path></g><g id="SvgjsG1783"><path id="SvgjsPath1784" d="M898.2771381578951 559.4759990253395L898.2771381578951 612.495004873294L976.1060855263149 612.495004873294L976.1060855263149 662.9140107212482" stroke="#323232" stroke-width="2" fill="none" marker-end="url(#SvgjsMarker1785)"></path></g><g id="SvgjsG1787"><path id="SvgjsPath1788" d="M1051.6324013157891 559.4759990253395L1051.6324013157891 612.495004873294L976.1060855263149 612.495004873294L976.1060855263149 662.9140107212482" stroke="#323232" stroke-width="2" fill="none" marker-end="url(#SvgjsMarker1789)"></path></g><g id="SvgjsG1791"><path id="SvgjsPath1792" d="M976.1060855263149 737.514010721248L976.1060855263149 774.6621588693962L976.1060855263149 774.6621588693962L976.1060855263149 809.2103070175443" stroke="#323232" stroke-width="2" fill="none" marker-end="url(#SvgjsMarker1793)"></path></g></svg>